<svg width="18" height="18" viewBox="0 0 18 18" fill="none" xmlns="http://www.w3.org/2000/svg">
<path d="M8.99977 1.05859C7.42916 1.05859 5.89381 1.52434 4.58789 2.39692C3.28197 3.26951 2.26413 4.50975 1.66308 5.96081C1.06203 7.41187 0.904773 9.00858 1.21118 10.549C1.5176 12.0895 2.27392 13.5044 3.38451 14.615C4.49511 15.7256 5.91009 16.4819 7.45053 16.7884C8.99096 17.0948 10.5877 16.9375 12.0387 16.3365C13.4898 15.7354 14.73 14.7176 15.6026 13.4116C16.4752 12.1057 16.9409 10.5704 16.9409 8.99977C16.9409 7.95692 16.7355 6.92428 16.3365 5.96081C15.9374 4.99734 15.3524 4.12192 14.615 3.38451C13.8776 2.6471 13.0022 2.06216 12.0387 1.66308C11.0753 1.264 10.0426 1.05859 8.99977 1.05859ZM12.4145 7.10183L8.78536 11.8665C8.71138 11.9626 8.61638 12.0405 8.50763 12.0942C8.39888 12.1479 8.27928 12.1759 8.15801 12.1762C8.03739 12.1769 7.9182 12.1501 7.8095 12.0978C7.7008 12.0455 7.60544 11.9691 7.53066 11.8745L5.59301 9.40477C5.52887 9.32238 5.48159 9.22817 5.45387 9.12751C5.42614 9.02686 5.41851 8.92172 5.43142 8.81812C5.44432 8.71451 5.47751 8.61446 5.52908 8.52368C5.58065 8.4329 5.64959 8.35317 5.73198 8.28903C5.89836 8.15951 6.10939 8.10138 6.31863 8.12744C6.42223 8.14035 6.52228 8.17353 6.61306 8.2251C6.70384 8.27667 6.78358 8.34562 6.84771 8.428L8.14213 10.0798L11.1439 6.10918C11.2075 6.02575 11.2869 5.95567 11.3776 5.90294C11.4683 5.8502 11.5685 5.81585 11.6725 5.80184C11.7765 5.78783 11.8822 5.79444 11.9836 5.82128C12.085 5.84813 12.1802 5.89468 12.2636 5.9583C12.347 6.02191 12.4171 6.10134 12.4698 6.19203C12.5226 6.28273 12.5569 6.38293 12.5709 6.4869C12.5849 6.59088 12.5783 6.69659 12.5515 6.79801C12.5247 6.89943 12.4781 6.99458 12.4145 7.078V7.10183Z" fill="#45A717"/>
</svg>
